<?xml version="1.0" standalone="no"?>
<!DOCTYPE svg PUBLIC "-//W3C//DTD SVG 20010904//EN"
 "http://www.w3.org/TR/2001/REC-SVG-20010904/DTD/svg10.dtd">
<svg version="1.0" xmlns="http://www.w3.org/2000/svg"
 width="900.000000pt" height="843.000000pt" viewBox="0 0 900.000000 843.000000"
 preserveAspectRatio="xMidYMid meet">
<metadata>
Created by potrace 1.15, written by Peter Selinger 2001-2017
</metadata>
<g transform="translate(0.000000,843.000000) scale(0.100000,-0.100000)"
fill="#000000" stroke="none">
<path d="M4588 8403 c-32 -35 -54 -93 -63 -163 -8 -70 3 -98 64 -163 55 -59
111 -143 111 -168 0 -47 -101 -96 -245 -120 -38 -6 -104 -19 -146 -30 -100
-25 -195 -33 -209 -16 -6 6 -19 24 -31 39 -37 50 -77 53 -229 18 -74 -18 -162
-37 -195 -42 -33 -6 -105 -23 -160 -39 -136 -38 -282 -72 -460 -109 -184 -37
-768 -200 -831 -232 -176 -88 -168 -243 29 -535 128 -191 414 -547 524 -654
240 -233 621 -554 845 -712 l57 -40 -22 -39 c-49 -86 -126 -175 -207 -238 -91
-72 -150 -95 -150 -60 0 11 -4 20 -10 20 -5 0 -10 -8 -10 -19 0 -14 -6 -17
-25 -13 -20 3 -24 1 -19 -12 4 -11 1 -16 -11 -16 -12 0 -15 5 -9 22 6 21 5 21
-10 9 -9 -8 -15 -23 -14 -34 2 -11 -3 -22 -9 -24 -12 -4 -18 19 -14 58 1 9 -6
19 -15 23 -21 8 -29 1 -18 -16 5 -7 9 -27 9 -44 0 -30 -2 -32 -47 -37 -51 -6
-150 -51 -190 -87 -14 -12 -50 -52 -79 -90 l-54 -68 -40 28 c-22 15 -56 34
-76 43 -19 8 -50 34 -69 58 -59 74 -100 109 -127 109 -84 0 -286 -52 -372 -97
l-65 -33 -60 58 c-91 85 -141 149 -139 174 1 13 -1 17 -4 10 -4 -10 -9 -8 -19
7 -19 27 -26 139 -14 231 8 56 7 86 -3 119 -17 59 -40 68 -31 13 5 -35 4 -40
-12 -39 -11 1 -19 -4 -18 -10 1 -7 2 -24 3 -38 0 -16 7 -25 17 -25 14 0 16 -8
11 -57 -3 -32 -12 -62 -19 -68 -19 -14 -15 -75 5 -87 10 -5 17 -14 17 -20 0
-20 89 -133 159 -203 39 -38 71 -74 71 -80 0 -22 -166 -108 -193 -99 -13 4
-17 2 -13 -5 4 -6 -7 -17 -26 -25 -18 -8 -50 -22 -70 -30 -47 -21 -133 -40
-180 -40 -21 0 -33 -3 -27 -7 6 -3 -4 -12 -21 -19 -42 -18 -80 -48 -80 -66 0
-11 9 -13 40 -8 39 6 63 -3 102 -38 30 -28 80 -49 93 -38 8 7 18 5 31 -5 10
-8 27 -15 36 -15 10 0 19 -11 23 -30 5 -22 17 -34 43 -47 20 -9 44 -23 54 -30
14 -13 20 -12 42 2 22 15 26 15 26 2 0 -8 -10 -22 -23 -30 -22 -14 -27 -13
-68 13 -24 15 -54 30 -67 34 -13 5 -22 15 -22 28 0 13 -10 24 -30 31 -17 6
-30 15 -30 20 0 4 -10 -1 -21 -12 -12 -11 -19 -26 -16 -35 4 -10 1 -13 -9 -9
-23 9 -16 -14 11 -35 25 -20 50 -67 46 -90 -4 -25 34 -73 62 -79 18 -4 27 -12
27 -24 0 -11 7 -19 15 -19 8 0 19 -9 25 -20 6 -11 19 -20 30 -20 18 0 80 -65
80 -83 0 -5 10 -23 22 -39 21 -31 22 -31 30 -9 10 28 38 24 54 -7 6 -12 21
-33 33 -46 11 -12 21 -29 21 -37 0 -8 7 -23 15 -33 12 -16 17 -17 30 -6 8 7
23 10 33 8 16 -4 19 1 20 30 2 36 -12 62 -31 62 -7 0 -7 -4 1 -12 15 -15 16
-48 2 -48 -5 0 -10 9 -10 20 0 24 -38 81 -80 120 -30 28 -32 29 -37 10 -3 -11
-10 -17 -15 -14 -14 9 -28 52 -22 69 10 24 43 18 54 -9 18 -49 90 -73 90 -30
0 17 48 124 60 134 4 3 9 13 13 23 3 9 17 17 29 18 36 1 61 5 86 13 15 5 22 3
22 -6 0 -8 -27 -26 -61 -41 -48 -21 -60 -31 -55 -44 5 -11 -5 -29 -30 -54
l-37 -38 19 -28 c30 -44 44 -82 44 -119 0 -42 30 -63 54 -38 9 8 16 24 16 35
0 10 4 19 10 19 5 0 18 10 29 21 14 15 28 20 50 17 24 -4 32 0 42 21 7 15 13
21 16 14 3 -7 13 -13 23 -13 10 0 20 -7 24 -15 3 -8 14 -15 24 -15 26 0 66 45
58 66 -3 9 -1 23 6 32 11 13 13 11 18 -9 7 -31 71 -63 148 -74 38 -6 42 -5 42
14 0 25 74 62 128 64 17 0 32 4 32 7 0 10 48 30 72 30 11 0 47 18 80 39 34 24
76 43 102 46 34 5 43 11 40 23 -2 10 7 31 21 47 23 27 25 28 25 9 0 -12 -7
-27 -15 -34 -19 -15 -19 -34 -2 -49 18 -14 52 21 44 43 -11 28 13 27 25 -1 12
-27 26 -43 39 -43 4 0 16 17 27 38 l20 39 -50 46 c-28 26 -57 47 -64 47 -8 0
-14 4 -14 8 0 4 -17 9 -37 9 -97 4 -173 16 -173 28 0 16 27 27 35 14 4 -5 11
-7 16 -3 5 3 6 11 2 17 -4 7 -6 20 -4 31 2 12 -2 16 -11 13 -7 -2 -12 -11 -10
-18 3 -11 1 -12 -9 -1 -18 17 -26 15 -32 -8 -3 -11 -10 -20 -17 -20 -6 0 -9 4
-5 9 3 5 1 12 -5 16 -5 3 -10 -1 -10 -9 0 -9 -4 -16 -10 -16 -5 0 -10 6 -10
14 0 8 -5 18 -12 22 -8 5 -9 -2 -5 -24 4 -19 2 -32 -3 -32 -6 0 -10 18 -10 40
0 39 1 40 34 40 22 0 36 6 40 16 4 11 12 14 24 9 9 -4 35 -10 57 -12 48 -6 75
-28 75 -60 0 -29 17 -30 23 0 l4 22 8 -23 c4 -12 13 -22 20 -22 8 0 20 -3 28
-6 8 -3 21 1 28 8 15 15 89 20 89 6 0 -4 -8 -11 -17 -17 -17 -9 -16 -11 3 -33
12 -13 24 -31 27 -41 6 -15 10 -16 28 -6 12 6 24 20 26 30 3 10 13 19 22 19 9
0 29 14 45 30 23 24 32 27 47 19 13 -7 39 -6 80 1 33 6 68 8 79 5 13 -4 20 0
25 15 9 28 31 20 27 -9 -5 -32 24 -50 72 -43 33 4 38 2 33 -10 -3 -10 7 -28
29 -48 26 -24 35 -39 32 -59 -1 -17 8 -40 26 -63 23 -30 35 -37 69 -40 34 -2
42 -7 48 -28 3 -14 24 -44 46 -67 40 -43 69 -111 54 -126 -4 -4 -13 9 -19 30
-7 21 -26 54 -42 73 l-30 35 6 -30 c4 -16 11 -34 15 -40 12 -13 11 -38 -1 -30
-16 10 -36 65 -44 118 -7 46 -8 47 -42 47 -24 0 -43 8 -60 25 -24 24 -25 24
-43 6 -10 -10 -24 -20 -31 -23 -11 -3 -11 -19 -1 -82 12 -71 7 -165 -7 -151
-3 3 -7 27 -7 53 -1 26 -5 79 -10 119 -8 72 -8 72 19 82 18 7 26 18 26 35 0
13 2 36 5 52 5 25 1 32 -28 52 -18 12 -43 22 -55 22 -11 0 -25 7 -29 15 -7 12
-15 13 -43 4 -19 -6 -69 -14 -110 -19 -132 -16 -149 -21 -170 -48 -12 -14 -17
-28 -13 -31 12 -9 48 -63 56 -83 5 -13 12 -15 43 -8 21 5 42 6 46 4 5 -3 39
-9 76 -13 64 -6 67 -7 64 -31 -1 -14 4 -46 13 -72 8 -25 16 -75 18 -110 4 -64
18 -104 45 -124 11 -8 13 -19 8 -40 -7 -26 -9 -27 -20 -11 -7 9 -18 17 -24 17
-21 0 -43 67 -48 149 -4 63 -10 90 -26 112 -20 26 -20 29 -4 53 9 14 16 28 16
31 0 3 -21 5 -46 5 -25 0 -54 5 -65 11 -14 7 -30 7 -55 -1 -31 -11 -37 -9 -59
12 -14 12 -25 31 -25 40 0 9 -10 24 -22 32 -20 14 -24 14 -45 -6 -12 -12 -25
-35 -29 -52 -3 -17 -12 -40 -20 -51 -15 -19 -16 -19 -29 -1 -10 13 -21 17 -39
12 -32 -8 -33 -29 -3 -56 18 -18 23 -19 25 -6 4 21 22 21 22 0 0 -24 62 -123
81 -129 9 -3 21 -15 27 -28 23 -43 51 -89 65 -105 32 -37 78 -147 72 -172 -6
-29 43 -105 75 -115 24 -8 34 -36 36 -100 3 -108 14 -142 53 -170 21 -14 42
-25 49 -25 22 0 23 -46 2 -103 -17 -45 -19 -61 -10 -72 11 -14 6 -35 -8 -35
-4 0 -12 13 -18 29 -9 23 -8 36 7 68 29 63 31 93 8 93 -10 0 -28 8 -38 18 -46
41 -55 46 -58 35 -3 -7 -11 -9 -18 -7 -8 3 -29 -1 -46 -10 -18 -9 -45 -16 -60
-16 -16 0 -43 -8 -61 -18 -45 -25 -129 -37 -122 -17 7 17 36 28 56 20 9 -4 33
3 54 14 21 12 48 21 59 21 11 0 47 11 80 25 67 27 65 23 43 124 -11 49 -20 67
-36 74 -14 6 -22 19 -22 34 0 19 -5 24 -22 21 -15 -2 -26 5 -34 22 -26 51 -54
117 -54 125 0 5 -6 16 -14 24 -19 21 -25 73 -8 78 7 3 12 -5 12 -21 0 -14 5
-26 10 -26 6 0 10 11 10 24 0 26 -23 51 -39 42 -15 -9 -41 5 -41 22 0 8 -7 23
-16 33 -13 14 -13 20 -2 38 17 28 0 55 -38 59 -16 2 -35 11 -43 20 -12 15 -12
15 -6 -5 6 -23 -8 -32 -20 -13 -4 6 -15 8 -25 5 -12 -4 -25 3 -39 21 -12 15
-24 24 -28 21 -3 -4 0 -13 6 -21 21 -25 3 -38 -29 -21 -41 21 -75 19 -94 -7
l-17 -23 6 27 5 27 -66 -4 c-36 -3 -70 -7 -75 -11 -6 -3 -47 -8 -92 -11 -86
-5 -107 -14 -107 -43 0 -22 -26 -34 -33 -15 -3 7 -3 23 0 34 3 12 1 21 -6 21
-6 0 -11 -10 -12 -22 l0 -23 -16 23 c-17 24 -46 31 -37 8 3 -8 -3 -16 -17 -19
-15 -4 -23 -1 -26 14 -9 32 -23 21 -25 -18 -4 -83 -3 -96 12 -103 8 -4 38 -18
65 -32 28 -14 68 -29 89 -32 41 -8 85 -32 99 -53 4 -7 14 -13 21 -13 24 0 135
-173 150 -232 3 -16 11 -28 16 -28 6 0 10 -7 10 -15 0 -22 70 -87 87 -81 8 4
16 6 19 6 2 0 13 19 25 42 14 27 24 38 27 29 7 -21 -27 -77 -54 -90 -36 -16
-52 -14 -66 9 -7 11 -18 20 -23 20 -12 0 -61 92 -71 132 -3 15 -17 38 -30 52
-14 13 -37 48 -52 78 -15 29 -34 54 -42 54 -8 1 -21 2 -29 3 -7 0 -11 7 -8 16
7 16 -43 45 -78 45 -11 0 -52 16 -91 35 -38 19 -74 35 -81 35 -13 0 -18 15
-28 75 -8 51 -55 112 -55 71 0 -7 7 -19 15 -26 22 -18 19 -25 -15 -27 -36 -3
-67 32 -48 54 8 10 5 13 -15 13 -20 0 -24 -4 -20 -20 4 -13 0 -20 -10 -20 -9
0 -18 -17 -24 -49 -11 -55 -3 -87 25 -95 11 -4 27 -15 37 -26 18 -20 65 -19
92 2 18 14 37 0 23 -17 -7 -8 -9 -28 -4 -52 l7 -38 -29 27 c-16 15 -42 30 -59
34 -16 4 -37 17 -46 28 -16 19 -18 20 -24 4 -4 -10 -15 -18 -25 -18 -24 0 -42
-24 -34 -44 4 -12 -4 -26 -25 -45 -22 -20 -29 -31 -21 -36 15 -10 6 -72 -18
-119 -12 -26 -22 -34 -34 -30 -10 3 -18 0 -18 -6 0 -20 32 -60 43 -53 6 4 1
-10 -11 -31 -27 -46 -28 -54 -2 -31 16 15 24 16 45 7 19 -9 30 -8 51 3 15 8
31 12 36 9 4 -3 23 10 42 29 58 59 123 56 125 -5 2 -62 4 -73 25 -90 31 -26
58 -22 88 12 28 32 57 37 102 20 30 -11 146 -100 146 -112 0 -14 -19 -9 -61
18 -67 42 -109 64 -122 64 -7 0 -19 -19 -27 -42 -13 -37 -19 -43 -45 -45 -38
-2 -95 -14 -95 -19 0 -2 4 -12 9 -22 19 -35 24 -58 23 -102 -1 -37 0 -40 6
-16 9 39 25 39 33 1 l6 -30 11 25 c7 16 11 19 11 9 1 -9 11 -23 24 -31 27 -17
123 -23 132 -8 10 15 23 12 27 -7 3 -16 6 -15 26 5 26 26 32 27 32 6 0 -19
-37 -54 -57 -54 -7 0 -13 -5 -13 -11 0 -15 -47 -59 -54 -51 -11 11 -57 -21
-51 -36 3 -8 1 -20 -5 -27 -8 -9 -6 -15 7 -19 10 -4 19 -3 21 3 6 19 50 -11
55 -38 3 -14 14 -35 25 -46 10 -12 21 -27 24 -35 2 -8 12 -1 26 21 12 19 22
29 22 22 0 -16 -49 -73 -63 -73 -8 0 -7 3 1 9 11 6 10 9 -5 13 -10 3 -27 23
-38 44 -10 22 -20 41 -22 43 -1 2 -24 5 -50 6 -54 3 -73 -12 -95 -71 -7 -19
-19 -36 -28 -39 -21 -7 -77 -65 -63 -65 5 0 18 9 28 20 22 24 31 25 39 4 8
-22 -2 -33 -14 -15 -7 12 -11 11 -25 -3 -10 -9 -24 -15 -31 -12 -21 8 -65 -15
-107 -56 -40 -40 -74 -54 -154 -64 -44 -5 -53 -10 -53 -26 0 -16 5 -19 28 -14
15 3 52 8 82 11 30 4 97 16 149 27 261 55 420 138 476 247 13 27 38 69 55 95
44 65 188 195 272 245 l72 43 76 -20 c109 -30 120 -32 170 -22 l45 9 53 -55
c30 -30 59 -54 65 -54 6 0 23 12 38 26 33 32 41 28 104 -48 76 -93 138 -119
164 -70 5 9 12 44 16 77 13 123 15 124 130 95 149 -38 212 -24 305 68 80 80
163 135 190 127 26 -8 56 -60 74 -128 8 -32 17 -61 19 -65 3 -4 12 -70 21
-147 20 -168 37 -219 74 -234 15 -5 54 -22 87 -36 65 -27 189 -61 355 -95 58
-12 110 -26 116 -31 6 -5 14 -31 17 -56 4 -41 11 -53 52 -87 84 -71 133 -146
168 -257 44 -139 51 -144 206 -144 l118 0 44 -36 c95 -79 263 -259 304 -325
63 -105 147 -154 260 -154 104 0 160 59 234 243 24 58 54 118 68 132 24 23 33
25 112 25 47 1 131 5 186 11 227 22 289 23 344 4 292 -97 413 -402 296 -745
-36 -103 -44 -233 -20 -297 43 -114 172 -265 427 -501 50 -47 58 -60 69 -110
6 -32 9 -87 6 -124 l-6 -68 62 1 c34 0 55 3 47 6 -25 9 -50 35 -50 51 0 12 5
11 23 -5 33 -31 93 -53 130 -47 68 10 143 27 169 36 22 8 27 18 33 61 4 29 14
64 21 79 23 45 18 158 -10 230 -14 35 -30 95 -35 134 -16 107 -69 263 -104
303 -29 34 -29 36 -23 113 8 91 -5 150 -36 172 -14 10 -23 32 -29 67 -13 79
-68 125 -138 116 -147 -20 -179 -29 -209 -61 -31 -31 -31 -32 -22 -101 9 -71
4 -121 -11 -131 -5 -3 -9 -13 -9 -22 0 -10 -9 -34 -20 -55 -12 -22 -18 -47
-15 -60 7 -27 -22 -177 -37 -192 -11 -11 -4 37 17 122 8 28 11 61 8 72 -3 11
9 56 26 101 29 75 31 86 24 153 l-8 72 -52 3 c-46 3 -57 -1 -101 -33 -51 -36
-62 -41 -62 -27 0 5 22 23 49 40 39 26 59 32 101 32 46 0 59 5 96 35 23 19 47
35 53 35 16 0 14 17 -3 23 -18 7 -27 59 -16 97 8 28 6 33 -23 51 -39 24 -119
21 -167 -7 -29 -18 -31 -18 -47 0 -17 18 -17 18 -1 13 10 -3 37 3 60 13 57 26
110 25 159 -2 l39 -23 -2 -59 c-3 -52 0 -60 22 -77 25 -19 26 -19 115 10 81
26 90 32 88 53 -5 67 63 181 124 210 24 11 43 24 43 30 0 5 11 19 25 32 18 17
26 35 27 62 1 39 32 104 49 104 5 0 16 11 25 25 17 26 16 27 -30 72 -26 25
-46 53 -45 62 2 9 -1 26 -5 38 -4 14 -1 33 9 53 12 23 15 50 11 107 -4 80 14
142 42 143 18 0 14 -126 -5 -155 -7 -11 -13 -32 -13 -47 0 -15 -4 -30 -10 -33
-5 -3 -10 -32 -10 -65 0 -54 2 -60 35 -89 37 -32 61 -39 67 -20 2 7 15 4 35
-7 37 -22 72 -11 99 31 14 21 15 31 5 51 -6 14 -11 43 -11 66 0 36 2 39 16 27
10 -9 14 -26 13 -57 -3 -37 0 -46 20 -56 13 -7 34 -11 47 -8 l24 4 0 164 0
164 -27 11 c-22 8 -30 7 -39 -6 -7 -9 -10 -25 -7 -35 3 -10 -3 -37 -13 -59
-15 -33 -24 -41 -46 -41 -30 0 -36 11 -14 29 13 11 29 62 40 130 6 31 5 33
-19 27 -29 -7 -33 4 -7 20 15 10 26 35 48 112 2 7 9 10 15 6 7 -4 9 -21 4 -48
-14 -83 -1 -116 47 -116 17 0 18 22 18 436 0 381 -2 435 -15 424 -11 -9 -19
-7 -42 14 -47 44 -58 43 -118 -19 -59 -60 -63 -65 -40 -65 7 0 31 -20 51 -45
21 -24 50 -49 66 -54 46 -16 34 -33 -18 -25 l-46 7 7 -62 c4 -37 3 -61 -3 -61
-17 0 -54 165 -45 201 4 14 0 19 -16 19 -42 0 -37 30 13 76 57 54 53 66 -33
119 -57 34 -80 63 -66 85 3 5 1 10 -4 10 -6 0 -11 -9 -11 -20 0 -22 -7 -25
-29 -11 -8 5 -10 14 -6 22 5 8 -3 2 -18 -13 -20 -22 -35 -28 -67 -28 -22 0
-49 -5 -60 -12 -15 -9 -24 -9 -44 1 -13 8 -32 11 -40 8 -14 -5 -12 -13 9 -52
13 -25 34 -55 47 -65 13 -11 17 -19 10 -20 -19 0 -61 45 -78 85 -16 39 -17 39
-45 24 -15 -7 -29 -7 -51 0 -18 6 -60 16 -94 21 -60 10 -110 32 -164 73 -19
14 -34 17 -71 12 -32 -5 -56 -2 -75 8 -44 22 -109 30 -134 17 -16 -9 -25 -9
-33 -1 -22 22 -35 12 -28 -21 5 -23 13 -34 28 -36 27 -4 41 -42 39 -112 -1
-49 -4 -56 -28 -68 -29 -14 -37 -37 -15 -45 6 -2 9 -8 4 -13 -4 -4 -15 -1 -23
8 -19 19 -5 53 25 63 24 7 35 34 21 51 -7 7 -8 27 -5 47 6 31 4 36 -29 55 -20
12 -36 28 -36 37 0 23 -47 92 -71 105 -18 10 -20 17 -14 57 13 88 17 89 85 32
53 -45 93 -55 129 -32 23 15 83 11 106 -7 11 -8 156 -30 190 -28 11 0 35 12
54 26 18 14 43 26 55 27 11 1 24 3 29 4 19 3 4 44 -27 72 -19 17 -36 40 -38
52 -2 12 -19 29 -42 40 -21 11 -41 29 -44 39 -3 13 -10 17 -21 12 -9 -4 -38
-10 -66 -14 -72 -11 -183 -38 -206 -50 -10 -6 -19 -20 -19 -30 0 -14 -7 -20
-21 -20 -14 0 -19 -5 -17 -17 5 -24 77 -22 136 3 41 18 57 44 27 44 -8 0 -15
5 -15 10 0 15 23 12 46 -4 19 -15 19 -15 -1 -35 -23 -23 -121 -61 -158 -61
-13 0 -32 9 -41 19 -22 24 -83 36 -102 20 -8 -6 -16 -10 -18 -8 -7 7 13 101
25 115 6 7 36 16 67 20 43 5 69 16 107 44 27 20 70 43 95 49 37 10 50 21 74
58 27 42 28 48 17 80 -18 48 -8 51 32 7 l34 -37 33 23 c29 21 32 27 27 61 -3
22 -2 41 3 44 9 5 20 -29 20 -62 0 -16 6 -23 19 -23 11 0 22 -4 25 -9 3 -5 23
-7 45 -4 25 3 41 1 46 -7 11 -18 -9 -27 -74 -34 -32 -4 -68 -14 -82 -24 -13
-9 -37 -21 -54 -27 -24 -8 -31 -17 -33 -42 -4 -36 -3 -36 50 -24 27 6 42 5 57
-6 25 -17 27 -33 6 -33 -8 0 -15 -4 -15 -10 0 -16 29 -12 50 8 27 25 149 57
164 42 13 -13 -8 -30 -36 -30 -52 0 -116 -22 -128 -44 -16 -30 -5 -52 67 -129
29 -32 53 -63 53 -68 0 -21 123 2 169 32 25 16 48 29 53 29 8 0 120 217 132
258 6 16 3 22 -9 22 -15 0 -73 -28 -107 -52 -9 -7 -21 -9 -25 -4 -10 10 56 66
79 66 23 0 23 17 1 22 -13 2 -4 11 29 31 26 15 63 47 84 72 33 41 36 48 25 71
-6 14 -11 38 -11 54 0 17 -7 33 -17 38 -15 9 -14 12 5 43 17 29 20 46 16 112
-5 75 -4 80 31 135 19 32 35 67 35 78 0 27 30 54 61 54 14 0 30 5 35 10 6 6
29 11 52 13 36 2 42 5 42 25 0 12 -16 54 -35 93 -19 39 -35 76 -35 83 0 6 16
35 35 64 l36 52 -2 320 c0 181 -5 320 -10 320 -5 0 -9 -4 -9 -10 0 -17 -16
-11 -81 33 -65 43 -90 56 -279 147 -58 27 -147 72 -197 98 -110 58 -166 72
-335 79 l-127 6 -10 51 c-19 95 -30 170 -42 288 l-13 118 38 110 c37 109 37
110 26 192 -6 46 -17 109 -25 140 -17 66 -80 198 -134 278 -92 136 -114 195
-136 366 -9 71 -30 174 -46 229 -16 55 -36 141 -45 190 -15 88 -48 196 -79
256 -18 33 -13 49 14 49 10 0 44 9 77 20 91 32 362 111 427 125 32 7 61 16 64
19 13 13 -163 5 -202 -8 -128 -46 -559 -164 -760 -210 -38 -8 -182 -41 -320
-72 -334 -75 -430 -115 -585 -245 -77 -65 -148 -103 -174 -93 -8 3 -42 45 -75
93 -33 48 -67 93 -75 100 -32 26 -66 16 -120 -38 -45 -45 -57 -51 -93 -51 -22
0 -71 9 -108 21 -86 26 -137 76 -222 215 -72 118 -144 189 -238 235 -56 27
-72 31 -122 27 -32 -3 -82 -16 -112 -30 -54 -26 -76 -25 -116 3 -35 24 -107
59 -123 59 -10 0 -30 -12 -44 -27z m2871 -228 c38 -80 57 -147 72 -245 6 -41
24 -115 40 -165 16 -49 34 -133 40 -185 22 -195 48 -272 142 -420 100 -157
135 -243 154 -379 l16 -117 -33 -88 c-36 -96 -40 -137 -27 -276 l8 -85 -59
-24 c-67 -26 -132 -74 -132 -97 0 -51 -103 -164 -216 -239 -32 -22 -94 -68
-138 -104 -107 -86 -251 -146 -392 -165 -50 -6 -219 -58 -299 -91 -78 -33
-231 -113 -294 -155 -35 -23 -86 -53 -115 -66 -45 -20 -56 -22 -94 -12 -49 12
-132 87 -132 119 0 25 12 24 28 -1 19 -30 32 -24 32 15 0 19 -4 35 -10 35 -5
0 -10 -8 -10 -17 0 -14 -4 -12 -25 7 l-25 23 0 -31 c0 -37 -14 -42 -31 -9 -6
12 -27 38 -45 58 l-34 35 92 62 c51 35 103 70 116 79 17 12 21 12 17 2 -7 -21
9 -41 28 -34 13 6 13 9 -5 27 l-21 21 69 64 c143 131 164 147 164 124 0 -12 6
-21 15 -21 8 0 15 7 15 15 0 8 6 15 13 16 10 0 10 2 0 6 -7 2 -13 11 -13 19 0
9 5 12 10 9 6 -3 10 0 10 7 0 7 28 36 62 63 159 128 240 248 254 376 4 40 22
98 46 153 59 136 126 322 139 388 11 55 10 64 -11 116 -13 32 -45 93 -72 137
-82 138 -81 130 -79 800 l1 150 258 59 c204 47 425 100 439 105 1 1 16 -28 32
-64z m-2142 -92 c3 -7 -3 -9 -17 -6 -16 4 -36 -9 -84 -56 -36 -33 -71 -61 -80
-61 -31 0 -66 -43 -69 -85 -2 -38 -1 -40 23 -36 28 5 46 4 109 -5 27 -4 52 -2
67 6 18 10 32 10 69 0 40 -11 48 -11 63 4 10 9 32 16 48 15 28 0 28 -1 6 -10
-13 -5 -30 -16 -39 -25 -13 -12 -25 -14 -52 -8 -20 4 -54 6 -76 5 -46 -3 -114
-3 -165 -2 -19 1 -56 -3 -82 -9 -34 -9 -52 -9 -68 0 -12 6 -42 14 -68 16 -25
3 -53 11 -62 18 -8 7 -32 16 -52 19 -33 5 -39 3 -50 -20 -7 -15 -26 -34 -43
-43 -29 -16 -30 -19 -27 -76 2 -32 -1 -72 -7 -88 -16 -40 -2 -52 70 -60 40 -5
59 -11 56 -19 -7 -22 -129 -7 -157 18 -18 16 -21 17 -45 1 -14 -9 -25 -24 -25
-34 0 -10 -7 -28 -16 -41 -18 -26 -22 -25 44 -6 12 3 22 3 22 -2 -1 -26 -71
-73 -111 -73 -17 0 -54 -11 -81 -25 -28 -14 -55 -25 -62 -24 -6 1 -18 0 -26
-4 -39 -14 -210 -47 -247 -47 -24 0 -43 -4 -43 -10 0 -5 -7 -7 -15 -4 -11 5
-14 -2 -13 -28 1 -18 1 -53 0 -78 -2 -42 -4 -44 -17 -25 -12 14 -14 34 -9 83
l7 63 -27 -7 c-22 -5 -33 0 -62 30 -19 20 -40 34 -45 31 -5 -4 -25 -1 -43 6
-28 10 -43 10 -73 0 -34 -11 -48 -10 -110 9 -70 21 -73 21 -102 4 -24 -14 -33
-16 -43 -6 -18 18 -27 15 -38 -14 -11 -29 -34 -23 -25 7 5 16 1 19 -22 19 -39
0 -66 -21 -57 -43 3 -9 11 -17 18 -17 6 0 24 -7 39 -15 24 -12 29 -12 34 0 6
16 33 21 33 6 0 -5 -11 -23 -26 -40 l-25 -30 116 3 c64 2 121 9 128 14 17 14
175 47 184 38 10 -10 -17 -26 -44 -26 -13 0 -23 -4 -23 -10 0 -5 11 -10 25
-10 15 0 25 -6 25 -14 0 -20 -137 -34 -260 -26 -19 1 -70 0 -112 -3 -84 -6
-98 0 -74 35 22 31 20 38 -10 38 -22 0 -24 -2 -14 -15 18 -22 5 -32 -34 -27
-27 3 -36 9 -36 23 0 16 -5 17 -32 12 -18 -3 -42 -12 -53 -20 -11 -7 -30 -13
-43 -13 -13 0 -37 -7 -54 -16 -28 -15 -30 -19 -24 -55 5 -32 3 -39 -10 -39 -9
0 -18 -9 -21 -20 -4 -14 -14 -20 -33 -20 -22 0 -29 5 -33 27 -6 35 19 58 41
37 7 -8 18 -14 23 -14 10 0 12 30 3 54 -7 18 -39 21 -50 5 -3 -6 -25 -20 -49
-30 -45 -20 -92 -87 -67 -96 17 -6 16 -63 -2 -63 -13 0 -26 -20 -26 -40 0 -15
28 -19 53 -7 14 6 35 31 48 54 35 63 59 54 59 -22 0 -38 30 -56 55 -35 12 10
15 10 15 -2 0 -47 -63 -41 -93 9 l-20 35 -15 -25 c-9 -14 -25 -29 -36 -33 -53
-18 -53 -18 -40 -43 12 -23 12 -23 19 -2 10 33 58 31 93 -4 29 -30 13 -41 -21
-15 -33 26 -45 25 -59 -5 -12 -28 -19 -30 -35 -14 -7 7 -12 3 -17 -16 -9 -36
1 -47 34 -40 22 5 32 1 49 -21 25 -32 27 -76 5 -95 -9 -7 -46 -54 -83 -104
-57 -76 -202 -222 -231 -233 -12 -4 -212 248 -334 419 -126 178 -185 296 -193
386 -4 60 -2 72 19 103 14 20 46 46 78 62 51 25 604 185 677 196 29 4 31 2 26
-18 -5 -19 -3 -21 16 -15 13 4 28 2 36 -5 12 -10 15 -9 15 4 0 23 28 32 43 13
19 -24 76 -10 95 24 13 22 23 27 49 25 18 -1 38 -7 45 -14 13 -13 80 -17 92
-4 4 4 17 8 29 8 12 1 54 4 93 7 39 2 80 9 92 16 11 6 28 11 37 11 9 0 25 9
37 20 12 11 29 20 38 20 10 0 34 11 54 25 43 29 52 31 60 10 3 -9 12 -12 21
-9 9 4 14 13 11 20 -6 14 31 34 99 52 22 6 56 23 75 37 22 16 37 22 44 15 12
-12 -23 -42 -84 -72 -25 -12 -55 -35 -68 -50 -13 -15 -31 -28 -39 -28 -8 0
-27 -6 -41 -14 -15 -8 -49 -20 -75 -27 -27 -7 -51 -18 -54 -26 -4 -9 -14 -12
-29 -9 -12 3 -33 2 -46 -3 -21 -9 -21 -10 -3 -12 11 -1 27 -3 35 -5 8 -1 23
-2 33 -3 31 -2 20 -31 -12 -31 -16 0 -42 -5 -58 -12 l-28 -11 40 -8 c22 -4 67
-15 99 -24 44 -13 65 -14 82 -7 17 8 49 5 131 -14 59 -13 110 -24 114 -24 3 0
12 25 19 56 19 77 35 83 209 78 106 -3 137 -1 154 11 30 21 117 20 117 -1 0
-13 -7 -15 -32 -12 -18 3 -56 -3 -84 -12 -41 -14 -72 -17 -162 -12 -130 6
-165 -4 -181 -50 -14 -39 -14 -39 2 -35 7 1 11 -7 9 -21 -5 -31 16 -36 105
-22 43 7 97 14 120 17 23 3 47 11 54 19 6 8 24 14 40 14 15 0 31 5 34 10 3 6
17 10 31 10 19 0 24 5 24 25 0 17 9 29 29 40 41 21 61 43 61 68 0 15 12 28 37
42 33 18 38 26 54 94 16 71 36 101 64 101 7 0 20 16 31 35 17 33 20 34 59 28
22 -3 48 -10 57 -14 9 -5 28 -9 43 -9 14 0 38 -6 53 -14 25 -13 60 -20 89 -17
7 1 15 23 19 52 7 54 33 89 66 89 24 0 23 21 -2 48 -11 12 -20 26 -20 32 0 20
21 6 38 -25 9 -17 18 -32 19 -34 2 -2 30 22 63 53 42 40 66 56 82 54 12 -2 23
-8 25 -15z m1388 -394 c0 -436 0 -433 97 -598 89 -151 90 -176 8 -406 -18 -49
-52 -133 -75 -185 -28 -60 -46 -117 -50 -155 -8 -72 -56 -184 -104 -242 -19
-23 -77 -77 -129 -120 -53 -43 -132 -112 -176 -154 -134 -126 -201 -183 -279
-237 -111 -76 -110 -76 -102 -6 4 32 18 87 30 121 33 86 42 204 20 266 l-16
48 45 47 c96 100 135 160 166 258 34 108 40 204 15 275 -9 24 -20 87 -25 139
-5 52 -14 109 -19 125 -6 17 -12 89 -15 161 -5 154 5 185 79 259 63 63 102
120 110 158 4 18 34 88 67 156 57 116 60 126 49 160 -6 20 -29 60 -51 89 -22
29 -40 56 -40 60 0 31 335 169 385 158 6 -2 10 -136 10 -377z m-494 84 c-30
-57 -37 -80 -29 -90 6 -7 16 -13 23 -13 6 0 20 -9 30 -20 22 -25 15 -68 -20
-114 -17 -23 -25 -46 -25 -73 0 -71 -46 -102 -169 -115 -17 -2 -28 -14 -40
-45 -9 -23 -25 -48 -34 -56 -22 -15 -33 -86 -19 -114 8 -15 7 -27 -4 -48 -8
-15 -12 -36 -9 -46 5 -13 -5 -25 -34 -45 -59 -39 -95 -104 -57 -104 16 0 21
-13 31 -72 6 -33 9 -36 28 -29 26 10 57 0 76 -23 7 -9 28 -16 45 -16 17 0 38
-5 46 -10 11 -7 3 -10 -30 -10 -32 0 -56 7 -82 25 -23 15 -39 21 -43 15 -4 -6
-14 -9 -22 -8 -13 2 -17 -7 -19 -41 -1 -24 -7 -46 -12 -50 -5 -3 -11 -15 -13
-25 -3 -12 -16 -23 -34 -28 -17 -4 -44 -21 -60 -38 -16 -16 -35 -30 -42 -30
-7 0 -13 -8 -13 -17 0 -10 -14 -29 -31 -43 -16 -14 -46 -39 -65 -57 -20 -18
-41 -34 -47 -36 -22 -7 3 -36 38 -43 44 -8 85 -39 85 -65 0 -16 7 -19 51 -19
57 0 201 43 220 66 6 8 24 14 40 14 34 0 37 15 8 46 -14 15 -19 29 -14 43 8
27 29 28 22 1 -3 -13 3 -26 19 -39 40 -32 25 -71 -28 -71 -16 0 -31 -7 -34
-15 -4 -8 -12 -15 -19 -15 -7 0 -18 -7 -25 -15 -7 -8 -16 -12 -21 -10 -4 3
-28 -4 -51 -17 -24 -12 -50 -23 -58 -24 -8 0 -27 -2 -42 -3 -35 -1 -40 -31
-16 -89 21 -51 23 -95 6 -110 -13 -10 -118 -13 -118 -3 1 23 21 33 54 28 31
-5 36 -3 36 13 0 10 -4 22 -10 25 -5 3 -10 15 -10 25 0 10 -9 38 -20 62 -58
125 -109 180 -149 159 -10 -6 -21 -8 -24 -5 -6 7 -206 5 -267 -2 -25 -3 -67
-6 -95 -7 -27 -2 -55 -5 -60 -9 -12 -8 -87 -1 -130 11 -23 6 -29 13 -28 30 2
13 -1 20 -7 16 -6 -3 -10 -15 -10 -26 0 -22 -18 -26 -26 -4 -4 8 -11 12 -16 9
-6 -4 -15 0 -20 7 -7 10 -8 6 -5 -14 5 -34 -10 -44 -83 -52 -14 -1 -28 -3 -32
-4 -14 -2 -9 -41 5 -41 7 0 22 7 35 15 16 12 34 14 74 9 29 -4 58 -11 65 -16
6 -5 67 -13 134 -18 67 -6 125 -12 128 -15 10 -11 -23 -24 -49 -20 -14 2 -59
6 -101 9 -42 3 -89 10 -104 16 -14 6 -32 7 -38 3 -13 -8 -36 -10 -159 -15 -47
-2 -77 -7 -74 -13 2 -5 11 -9 20 -9 9 1 16 -4 16 -12 0 -24 -46 -16 -63 10
-15 22 -15 25 4 41 16 15 23 16 45 6 33 -15 36 -12 28 28 -5 25 -10 30 -25 26
-14 -5 -19 -1 -19 14 0 12 -4 21 -10 21 -5 0 -10 -11 -10 -25 0 -18 -5 -25
-19 -25 -10 0 -23 -6 -29 -13 -6 -7 -27 -11 -49 -9 -134 10 -167 10 -187 -3
-19 -13 -26 -12 -51 1 -17 9 -39 17 -50 18 -11 2 -36 9 -57 16 -27 10 -44 11
-70 3 l-33 -11 39 -1 c22 -1 56 -6 75 -12 20 -7 42 -14 50 -16 9 -2 11 -7 5
-12 -5 -5 -32 -4 -61 2 -29 6 -56 8 -59 4 -4 -4 3 -19 17 -33 29 -32 137 -104
156 -104 7 0 33 9 58 21 34 16 45 27 45 44 0 28 36 41 98 37 61 -4 50 -28 -12
-25 -25 2 -46 -1 -46 -7 0 -15 63 -22 93 -11 36 14 37 14 37 -3 0 -19 -22 -26
-85 -26 -34 0 -57 -5 -65 -15 -7 -8 -22 -15 -35 -15 -12 0 -30 -9 -41 -21 -18
-20 -18 -21 6 -40 14 -11 46 -34 73 -51 55 -37 60 -51 15 -46 -27 2 -35 -2
-46 -24 -7 -16 -17 -28 -22 -28 -5 0 -10 12 -12 28 -2 21 -9 28 -32 30 -16 2
-33 -1 -39 -7 -19 -19 -57 -13 -57 9 0 24 21 70 32 70 12 0 10 -34 -4 -48 -16
-16 -2 -28 17 -12 8 7 33 11 60 8 62 -4 56 16 -15 54 -47 26 -62 29 -105 24
-117 -15 -155 -23 -173 -39 -10 -9 -24 -17 -30 -17 -15 0 -16 -17 -2 -25 6 -3
10 -19 10 -36 0 -16 -4 -29 -10 -29 -5 0 -10 11 -10 24 0 13 -7 29 -15 36 -25
21 -18 47 15 54 17 3 30 12 30 20 0 9 20 17 63 25 111 19 127 23 127 35 0 6
-9 17 -20 24 -17 10 -20 10 -20 -3 0 -25 -28 -5 -40 28 -10 30 -52 87 -65 87
-3 0 -5 -7 -5 -15 0 -8 5 -15 10 -15 6 0 10 -7 10 -15 0 -8 -4 -15 -9 -15 -15
0 -36 32 -33 50 5 28 -25 32 -52 7 -13 -12 -27 -37 -30 -54 -9 -41 -26 -53
-26 -19 0 14 4 27 10 31 5 3 7 12 4 20 -5 12 -9 11 -23 -5 -9 -11 -35 -22 -63
-26 -44 -6 -48 -4 -58 18 -7 13 -26 29 -43 36 -22 8 -28 15 -21 22 8 8 19 8
38 0 15 -5 41 -10 58 -10 25 0 29 -3 25 -19 -4 -16 0 -19 22 -17 15 2 31 12
37 25 16 32 22 35 38 22 8 -7 21 -9 27 -5 18 11 -18 34 -53 34 -16 0 -45 7
-64 15 -20 8 -40 12 -45 9 -13 -8 -80 36 -73 47 4 6 10 6 17 0 7 -5 26 -11 42
-13 52 -5 35 22 -36 61 -37 20 -85 56 -108 81 -32 34 -44 41 -53 32 -7 -7 -21
-12 -32 -13 -21 -1 -21 -1 0 -7 30 -10 94 -69 94 -87 0 -13 -6 -11 -32 7 -18
13 -37 29 -41 36 -11 17 -27 15 -27 -5 0 -28 49 -90 85 -107 25 -12 33 -22 33
-43 0 -16 -5 -31 -12 -35 -8 -6 -8 -10 1 -16 16 -10 27 -78 14 -86 -6 -4 -13
5 -16 21 -4 15 -10 35 -14 43 -10 19 -78 25 -108 9 -21 -11 -23 -17 -17 -58 3
-25 17 -60 30 -78 24 -31 74 -63 101 -63 7 0 13 -4 13 -10 0 -19 22 -10 53 22
18 18 26 29 20 24 -17 -10 -17 26 -1 42 9 9 9 15 0 24 -16 16 -15 38 1 38 18
0 49 -35 40 -44 -5 -4 -8 -25 -9 -47 0 -33 3 -41 22 -45 27 -7 50 -31 40 -41
-4 -4 -16 -2 -26 5 -11 7 -27 12 -36 12 -25 0 -11 -23 20 -31 22 -6 136 -110
136 -125 0 -14 -28 2 -72 44 -43 40 -57 47 -94 48 -35 1 -43 -2 -41 -15 3 -19
72 -84 100 -94 9 -4 17 -15 17 -25 0 -13 9 -21 28 -25 15 -3 35 -9 45 -12 12
-5 17 -2 17 10 0 12 8 16 32 13 27 -3 33 -8 41 -38 12 -48 26 -62 54 -55 13 3
23 1 23 -5 0 -5 5 -10 10 -10 6 0 10 7 10 15 0 10 10 15 28 15 16 0 37 9 47
20 18 19 17 20 -14 31 -34 12 -46 29 -73 104 -20 57 -23 85 -8 85 6 0 10 -7
10 -15 0 -8 4 -23 9 -33 5 -9 15 -36 21 -59 11 -35 19 -44 54 -57 59 -23 70
-20 105 19 17 19 33 35 37 35 8 0 -5 -53 -15 -60 -5 -3 -25 -20 -45 -38 -42
-37 -42 -66 -1 -76 14 -4 25 -12 25 -19 0 -14 52 -57 70 -57 13 0 13 -29 -2
-71 -19 -55 -119 -219 -133 -219 -7 0 -16 -7 -19 -16 -3 -8 -2 -12 4 -9 6 3
10 4 10 0 0 -8 -52 -85 -58 -85 -3 0 -96 46 -206 103 -216 111 -286 157 -551
362 -243 188 -745 641 -745 671 0 6 38 45 84 87 47 43 116 119 154 170 80 106
117 143 127 128 3 -6 11 -11 17 -11 7 0 6 5 -2 15 -12 15 -6 35 11 35 5 0 9
-7 9 -15 0 -8 5 -15 12 -15 6 0 19 -7 28 -15 13 -12 23 -13 44 -6 29 12 71 -2
80 -25 7 -18 -4 -18 -32 2 -18 12 -26 13 -37 4 -8 -7 -12 -16 -9 -21 3 -5 7
-39 9 -76 3 -69 22 -100 53 -88 7 3 62 7 123 9 67 2 115 8 124 16 14 12 48 10
88 -5 32 -13 17 13 -20 36 -21 12 -49 32 -63 45 -14 12 -50 29 -80 37 -40 10
-54 18 -52 30 1 8 -2 18 -8 22 -16 10 -12 35 6 35 9 0 28 -8 42 -19 43 -29 89
-34 112 -11 22 22 45 26 55 10 3 -5 -1 -10 -9 -10 -8 0 -18 -5 -21 -11 -5 -7
7 -8 37 -4 23 4 66 9 95 12 38 4 54 10 58 23 3 10 12 21 20 24 19 7 21 -34 3
-52 -15 -15 -4 -27 14 -16 7 5 22 7 34 6 25 -4 42 15 50 55 7 37 -7 44 -86 45
-42 0 -50 3 -50 19 0 24 -17 27 -175 33 -150 5 -208 14 -202 30 3 6 11 10 18
8 7 -2 94 -3 193 -3 99 0 185 -4 191 -8 28 -24 86 -50 99 -45 7 3 16 27 20 54
8 60 32 120 48 120 7 0 30 -6 53 -14 22 -8 60 -20 85 -27 25 -7 52 -19 61 -26
19 -16 119 -17 152 -2 14 6 30 22 36 36 18 40 33 17 16 -25 -9 -20 -17 -36
-18 -36 -1 -1 -18 -9 -38 -19 -29 -15 -41 -17 -57 -8 -25 13 -72 14 -105 2
-20 -8 -29 -6 -44 11 -22 25 -86 58 -111 58 -11 0 -24 -14 -35 -38 -22 -50
-21 -62 2 -62 12 0 18 7 17 18 0 10 5 16 13 14 7 -1 34 -4 60 -6 31 -3 47 -9
49 -19 4 -19 -18 -26 -95 -29 -58 -3 -62 -4 -65 -30 -3 -15 2 -34 10 -42 10
-10 11 -19 4 -32 -14 -24 3 -57 26 -50 9 3 61 8 116 11 54 3 103 8 108 11 5 3
14 2 21 -3 16 -13 187 -33 260 -31 45 1 65 -4 87 -21 27 -19 33 -20 71 -9 45
14 79 55 79 97 0 27 50 141 62 141 5 0 11 -14 15 -30 l6 -30 75 1 c67 1 77 -1
92 -21 15 -20 22 -21 84 -15 37 4 86 13 109 19 38 11 45 18 73 76 17 35 44 73
59 86 18 14 26 28 22 38 -4 9 6 50 22 90 16 41 25 78 21 83 -4 4 -11 26 -15
48 -5 33 -2 46 15 68 12 15 26 27 32 27 5 0 23 11 40 25 16 14 37 25 46 25 19
0 -4 -22 -71 -66 -47 -31 -53 -45 -38 -95 9 -28 17 -39 31 -39 11 0 20 -7 20
-15 0 -9 -8 -14 -21 -12 -18 2 -25 -7 -40 -48 -9 -27 -18 -66 -18 -86 -1 -28
-7 -41 -26 -53 -13 -9 -31 -29 -39 -44 l-15 -28 47 7 c88 14 107 21 127 44 29
34 105 39 105 7 0 -22 -45 -42 -104 -44 -26 -1 -52 -8 -58 -15 -6 -7 -29 -13
-52 -13 -49 0 -58 -6 -79 -47 -19 -35 -49 -48 -140 -59 -31 -3 -60 -10 -63
-15 -9 -16 -50 -10 -106 15 -35 16 -66 23 -84 20 -16 -3 -43 -5 -61 -5 -29 1
-32 -2 -38 -40 -5 -26 -20 -55 -41 -79 -19 -21 -34 -42 -34 -47 0 -6 20 -13
45 -16 53 -5 60 -10 51 -34 -4 -11 -10 -13 -14 -7 -4 6 -24 11 -45 11 -21 1
-43 6 -51 12 -7 6 -16 8 -19 5 -7 -7 -95 14 -112 26 -5 4 -25 10 -43 12 -25 4
-35 0 -43 -14 -5 -10 -7 -23 -4 -28 3 -5 1 -11 -4 -14 -12 -8 -21 17 -14 42 4
18 -2 20 -59 24 -34 3 -66 1 -69 -4 -3 -5 -18 -4 -33 2 -25 9 -79 12 -161 9
-16 -1 -72 3 -124 8 -64 7 -104 7 -124 1 -19 -7 -41 -7 -65 -1 -34 10 -54 10
-171 5 -43 -2 -44 -2 -26 -22 10 -11 25 -20 34 -20 9 0 31 -9 49 -20 18 -11
39 -20 47 -20 7 0 21 -8 31 -17 18 -19 32 -21 123 -23 29 -1 62 -7 73 -13 16
-9 22 -9 25 1 5 14 35 16 49 3 5 -5 27 -6 49 -2 22 4 52 4 66 1 14 -4 83 -11
152 -15 108 -6 127 -9 127 -24 0 -13 -11 -16 -68 -15 -61 0 -120 7 -180 20
-13 2 -27 2 -33 -2 -16 -9 -182 -13 -199 -4 -8 4 -44 11 -80 15 l-65 7 19 -21
c11 -11 25 -21 33 -21 7 0 13 -4 13 -9 0 -14 107 -53 128 -47 21 7 48 -17 38
-32 -3 -5 12 -21 34 -36 45 -29 51 -31 45 -13 -8 21 9 35 45 39 25 2 38 10 45
26 12 27 31 23 27 -6 -2 -15 2 -21 15 -20 10 0 52 -3 93 -7 41 -4 111 -8 155
-9 88 -1 105 -7 105 -37 0 -12 5 -17 10 -14 6 4 10 16 8 28 -2 17 3 23 20 25
20 3 23 0 17 -17 -3 -12 -2 -21 3 -21 15 0 24 33 11 40 -6 5 1 12 19 18 17 6
33 8 35 5 3 -2 13 -6 22 -7 9 -1 20 -7 23 -12 10 -13 42 -14 42 0 0 6 5 4 11
-4 9 -13 10 -13 6 0 -2 8 -12 14 -22 12 -11 -2 -15 2 -13 10 3 7 16 13 29 14
14 1 36 7 49 14 14 8 37 13 52 12 19 -2 31 4 39 19 10 19 17 21 63 15 28 -3
60 -8 71 -10 11 -3 26 -5 33 -5 9 -1 11 -12 8 -38 -3 -21 -3 -30 0 -20 3 9 9
17 14 17 5 0 11 -8 13 -17 3 -11 5 -7 6 10 1 18 6 27 14 24 6 -2 11 -12 11
-21 -1 -9 2 -16 7 -16 5 0 9 8 9 18 0 11 9 27 20 37 18 16 23 17 46 5 16 -9
24 -20 21 -31 -3 -9 -1 -23 4 -30 6 -9 9 -2 9 22 0 32 3 37 30 43 17 3 30 12
30 20 0 22 33 37 77 35 21 0 57 2 80 6 23 4 50 4 60 1 17 -7 17 -8 0 -17 -9
-6 -26 -7 -37 -4 -15 5 -69 -16 -110 -43 -15 -10 40 -32 80 -32 39 0 53 5 81
32 19 18 42 48 52 67 24 44 57 72 80 65 12 -4 17 0 17 15 0 11 5 23 10 26 29
18 -21 43 -110 55 -36 5 -83 12 -105 16 -22 4 -59 7 -82 7 -24 0 -43 4 -43 8
0 14 57 20 101 10 77 -18 79 -17 79 37 0 26 5 53 12 60 14 14 64 16 72 3 9
-15 -22 -33 -44 -26 -18 6 -20 2 -20 -43 l0 -50 48 -5 c42 -4 142 -35 117 -37
-5 0 -3 -4 5 -10 10 -6 20 0 38 24 13 18 34 39 47 46 33 18 50 114 33 188 -12
49 -15 52 -43 53 -16 0 -56 2 -87 5 -64 6 -77 22 -57 68 13 29 36 37 24 9 -18
-44 -13 -48 76 -57 l85 -8 32 32 c18 17 32 35 32 39 0 5 -14 28 -32 52 -56 76
-100 171 -102 216 0 24 -6 43 -12 43 -15 0 -98 90 -90 97 4 4 27 -13 51 -37
25 -24 45 -39 45 -32 0 7 7 12 15 12 18 0 19 14 4 38 -10 15 -7 27 15 65 15
25 33 51 41 57 8 6 19 26 25 45 9 28 7 41 -15 88 -25 57 -33 103 -15 92 6 -3
10 -13 10 -21 0 -8 11 -37 25 -66 14 -28 25 -59 25 -67 0 -16 -21 -52 -73
-131 -21 -30 -26 -45 -18 -53 15 -15 14 -47 -5 -82 -16 -31 -12 -95 6 -95 6 0
10 -7 10 -15 0 -20 38 -92 70 -135 15 -19 30 -43 33 -52 9 -26 30 -23 22 2 -4
12 0 31 9 45 10 16 12 26 5 30 -18 11 -8 118 13 136 10 9 27 37 39 63 22 51
25 53 84 61 113 14 125 22 125 83 0 36 8 57 36 98 41 59 39 71 -18 100 -42 22
-38 46 30 172 7 12 17 22 23 22 5 0 -8 -35 -30 -77z m-523 -20 c3 -23 -40 -63
-69 -63 -19 0 -83 -49 -75 -58 3 -3 19 -6 36 -7 17 -2 34 -6 37 -9 13 -13 -5
-16 -48 -8 -33 6 -48 5 -57 -4 -18 -20 -14 -31 13 -38 21 -5 25 -12 25 -41 0
-19 -4 -35 -10 -35 -5 0 -10 12 -10 28 0 22 -7 30 -40 45 -22 9 -58 17 -81 17
-22 0 -48 4 -57 9 -16 8 -99 -19 -198 -64 -18 -8 -60 -22 -95 -31 -35 -9 -87
-27 -116 -40 -54 -25 -73 -29 -73 -16 0 9 113 55 201 82 37 11 107 36 155 56
l89 36 79 -13 80 -12 44 49 c25 27 68 60 96 74 42 20 51 29 48 48 -3 30 22 24
26 -5z m-858 -613 c0 -37 -82 -69 -189 -74 -31 -1 -63 -5 -71 -8 -37 -15 -278
-25 -465 -20 -38 2 -77 1 -85 0 -8 -2 -16 2 -18 7 -1 6 6 11 17 13 26 4 37 32
12 32 -27 0 -48 27 -33 42 9 9 12 9 12 0 0 -8 16 -10 55 -7 47 5 55 3 55 -11
0 -13 -6 -15 -30 -10 -26 5 -30 3 -30 -16 0 -19 4 -20 65 -16 39 4 68 2 72 -4
9 -16 163 0 192 19 14 9 41 16 60 17 20 1 42 5 49 9 7 5 12 4 12 -2 0 -13 94
-13 170 0 30 5 70 12 88 16 19 3 36 12 39 19 8 21 23 17 23 -6z m49 -584 c10
-12 16 -12 42 1 24 12 33 12 44 3 9 -8 31 -11 55 -7 25 3 45 0 57 -9 10 -7 32
-14 50 -14 17 0 34 -4 37 -8 3 -5 41 -7 85 -5 46 2 82 -1 86 -7 4 -6 -19 -10
-62 -11 -37 -1 -79 -4 -93 -8 -14 -4 -45 -3 -70 2 -25 5 -67 11 -95 13 -27 2
-72 8 -100 12 -27 5 -62 6 -77 1 -16 -4 -28 -4 -28 2 0 5 7 9 15 9 8 0 15 9
15 20 0 23 22 26 39 6z m623 -287 c13 -5 34 -25 46 -43 21 -31 22 -39 14 -121
-10 -103 0 -123 73 -151 52 -19 99 -16 190 16 33 12 67 23 76 26 23 8 31 -31
30 -139 -1 -68 -7 -101 -25 -145 -18 -44 -26 -92 -35 -207 -7 -82 -14 -160
-17 -172 -6 -29 -52 -53 -103 -53 -39 0 -330 -47 -441 -71 -108 -23 -237 -107
-365 -238 -27 -28 -54 -51 -61 -51 -15 0 -261 80 -349 114 -120 46 -335 149
-335 161 0 6 7 21 16 33 12 17 21 21 41 16 16 -4 28 -2 34 7 12 19 11 29 -1
29 -5 0 -10 -7 -10 -15 0 -8 -4 -15 -10 -15 -23 0 -7 49 48 144 101 175 112
229 67 328 -27 59 -28 104 -1 140 18 25 82 46 169 57 43 5 89 16 102 25 31 20
46 77 39 141 -9 76 0 78 280 82 l230 3 90 44 c154 73 164 76 208 55z m2378
-84 c0 -3 7 -49 15 -103 16 -101 28 -156 93 -405 33 -130 37 -156 29 -205 -4
-32 -10 -131 -13 -222 l-6 -166 -91 -23 c-51 -13 -128 -40 -172 -60 -44 -21
-109 -43 -145 -51 -36 -7 -77 -21 -91 -31 -14 -10 -50 -27 -79 -39 -29 -11
-72 -32 -95 -45 -27 -16 -70 -29 -121 -35 -241 -32 -246 -32 -399 15 -246 76
-336 88 -431 60 -73 -21 -127 -61 -273 -201 -72 -68 -143 -129 -158 -136 -18
-7 -74 -10 -153 -7 -69 2 -162 3 -207 3 l-81 -1 -7 54 c-11 89 -38 155 -72
179 -44 30 -171 69 -330 103 -207 45 -198 35 -111 117 40 38 94 86 119 106 53
43 188 108 226 108 14 0 91 11 172 25 80 14 186 29 234 34 77 8 92 12 118 37
26 25 29 34 29 96 0 37 4 68 9 68 6 0 30 -27 55 -59 82 -106 159 -161 228
-161 30 0 118 39 176 79 87 58 197 112 216 105 10 -4 16 -18 16 -41 0 -44 24
-40 28 5 2 18 9 33 15 33 7 1 -6 5 -28 9 l-40 6 50 23 c85 39 253 91 343 106
130 23 271 78 345 136 34 27 103 78 152 113 50 35 112 83 139 107 50 44 116
136 116 162 0 21 39 53 100 81 53 25 80 32 80 21z m390 -239 c60 -14 125 -43
240 -107 41 -23 125 -63 186 -89 104 -45 216 -111 243 -144 10 -11 7 -25 -12
-63 -44 -90 -95 -247 -126 -395 -47 -220 -76 -297 -155 -418 -78 -119 -99
-147 -245 -318 -99 -116 -190 -195 -273 -238 -18 -9 -64 -19 -102 -22 l-69 -5
7 39 c4 21 11 100 16 174 8 127 16 179 40 275 5 22 10 126 10 230 0 105 4 195
9 200 5 6 12 89 15 185 3 96 9 201 12 233 7 68 -18 182 -97 442 -5 16 -9 31
-9 32 0 10 265 0 310 -11z m-4568 -543 c8 -20 657 -344 793 -396 179 -69 335
-117 515 -157 190 -43 315 -78 365 -102 42 -21 44 -24 65 -100 12 -43 20 -93
18 -109 -3 -27 -10 -34 -49 -49 -80 -30 -223 -43 -324 -29 -48 6 -115 9 -148
7 -58 -4 -63 -7 -106 -54 -91 -99 -112 -159 -132 -372 -6 -64 -16 -128 -22
-143 -21 -48 -222 -263 -299 -320 l-28 -20 -9 23 c-4 13 -11 75 -13 138 -4 92
-9 124 -27 158 -30 58 -196 277 -290 382 -113 127 -108 116 -83 149 20 28 20
30 3 45 -25 22 -57 0 -48 -34 6 -23 6 -23 -20 3 -23 22 -24 28 -13 42 11 13
11 19 -3 32 -14 14 -17 14 -32 0 -20 -21 -48 -11 -42 15 4 15 1 18 -14 13 -10
-4 -19 -2 -19 4 0 6 -7 8 -15 5 -8 -4 -15 -1 -15 5 0 6 -4 11 -10 11 -5 0 -10
-7 -10 -15 0 -9 -9 -15 -24 -15 -29 0 -43 17 -27 33 16 16 14 32 -3 18 -10 -8
-16 -9 -21 -1 -11 18 -25 0 -25 -32 l0 -31 -144 5 c-140 6 -146 7 -237 46
-115 50 -402 182 -408 187 -2 3 9 23 24 45 55 79 105 129 143 141 20 6 42 15
47 20 6 4 71 17 145 29 182 28 183 28 176 45 -7 18 6 19 22 3 9 -9 12 -8 12 7
0 15 3 16 12 7 7 -7 15 -12 19 -12 8 0 22 40 20 57 -1 6 24 33 55 60 58 49
128 135 176 217 26 43 42 56 50 39z m4305 -565 c-2 -112 -8 -213 -12 -225 -7
-22 -11 -23 -154 -23 -200 0 -312 -19 -541 -88 -107 -33 -229 -67 -270 -77
-152 -35 -170 -43 -255 -125 -59 -56 -96 -82 -140 -100 -33 -13 -65 -27 -70
-31 -6 -4 -17 -4 -25 1 -21 13 -32 12 -27 -2 2 -7 -26 -45 -64 -85 -79 -84
-86 -103 -95 -263 -8 -145 3 -218 61 -397 37 -113 49 -172 64 -299 l19 -159
55 -50 c52 -48 126 -159 114 -172 -9 -8 -215 15 -240 28 -77 38 -147 96 -185
154 -53 78 -61 85 -152 124 -131 55 -282 186 -319 276 -10 22 -23 76 -30 120
-19 124 -61 200 -181 325 -55 58 -105 115 -110 128 -15 36 -12 90 10 169 13
49 17 80 11 95 -17 46 -22 116 -10 159 6 24 16 68 23 96 6 29 17 58 24 65 10
10 61 12 212 10 250 -4 249 -4 404 146 172 166 257 214 366 207 52 -3 264 -56
299 -74 9 -5 52 -17 96 -26 72 -16 94 -17 210 -6 140 13 224 32 265 60 14 10
48 26 75 36 28 11 66 29 85 41 19 12 61 28 94 34 32 7 88 26 125 42 36 17 89
37 116 45 28 8 70 20 95 28 25 7 49 14 54 14 4 1 6 -90 3 -201z m-5867 -93 c7
-8 21 -15 31 -15 10 0 21 -5 24 -10 10 -16 93 -53 103 -46 5 3 32 -4 61 -14
28 -11 60 -20 70 -20 18 0 27 -7 58 -44 11 -13 164 -66 194 -66 8 0 27 -9 43
-19 20 -14 36 -17 55 -11 38 11 57 -7 63 -58 5 -36 4 -41 -8 -31 -8 6 -14 18
-14 25 0 14 -11 17 -84 29 -21 4 -57 18 -80 32 -22 15 -59 28 -81 31 -22 2
-47 10 -56 18 -8 8 -23 14 -31 14 -9 0 -21 7 -28 15 -7 8 -21 15 -31 15 -10 0
-21 5 -24 11 -4 6 -13 8 -21 5 -8 -3 -22 -2 -32 3 -9 4 -35 16 -57 26 -22 9
-52 24 -67 31 -14 8 -34 14 -45 14 -22 0 -73 45 -73 65 0 19 14 19 30 0z
m5836 -188 c1 -1 -2 -31 -7 -67 -4 -36 -13 -123 -19 -195 -11 -129 -23 -165
-56 -165 -19 0 -92 -65 -159 -141 -84 -96 -130 -190 -154 -319 -11 -58 -30
-149 -42 -202 -20 -96 -21 -103 -7 -303 15 -215 12 -283 -19 -385 -19 -63 -28
-78 -132 -216 -84 -113 -138 -158 -256 -214 -128 -61 -121 -62 -138 17 -8 37
-18 89 -21 114 -10 67 -68 182 -108 212 -35 27 -111 52 -133 43 -17 -6 -36 17
-65 77 -12 27 -49 74 -81 105 l-58 57 -20 160 c-13 108 -30 191 -51 255 -71
216 -88 343 -69 520 7 61 13 79 46 121 41 54 78 83 93 74 6 -3 10 1 10 9 0 20
19 21 26 1 11 -27 34 -17 34 15 0 20 6 33 18 37 77 27 123 57 179 117 69 74
79 79 218 111 55 13 168 44 250 70 291 92 376 106 585 99 74 -3 135 -6 136 -7z
m-2529 -119 c-2 -13 -13 -52 -22 -88 -15 -57 -16 -75 -5 -145 10 -69 9 -86 -4
-124 -9 -24 -19 -67 -22 -96 -9 -76 17 -126 123 -235 121 -125 155 -183 178
-306 25 -136 45 -176 134 -265 85 -85 156 -134 252 -174 80 -34 81 -34 131
-113 32 -49 60 -76 115 -113 89 -60 143 -75 308 -83 80 -5 144 -13 166 -22 52
-22 96 -100 116 -205 9 -46 27 -124 41 -174 34 -123 36 -144 23 -249 -23 -175
-19 -163 -56 -170 -44 -9 -89 -54 -120 -122 -14 -30 -25 -58 -25 -63 0 -4 -15
-39 -34 -77 -62 -128 -122 -163 -227 -134 -66 18 -117 63 -177 152 -59 89
-269 300 -345 347 -35 21 -41 22 -88 11 -59 -14 -151 -9 -173 10 -9 7 -23 38
-32 69 -36 133 -97 232 -184 302 -32 26 -40 40 -46 76 -11 74 -31 88 -179 118
-231 47 -385 95 -427 134 -13 12 -21 51 -33 146 -36 308 -87 425 -183 425 -33
0 -41 6 -75 54 -21 29 -72 87 -112 129 l-73 75 89 82 89 81 0 -35 c0 -19 5
-38 10 -41 6 -4 10 6 10 22 l0 28 19 -24 c23 -30 36 -22 39 23 2 27 -1 36 -13
36 -12 0 -15 -6 -10 -22 7 -22 6 -22 -21 4 l-27 27 59 61 c91 95 92 97 114
289 17 148 24 181 50 234 63 130 108 154 244 135 92 -13 299 -4 351 16 54 20
58 19 52 -6z m2996 -170 c35 -17 35 -31 0 -24 -24 6 -28 3 -29 -18 -1 -18 6
-28 28 -37 17 -7 41 -23 53 -37 l23 -25 16 30 c16 32 61 59 117 70 23 4 30 3
25 -5 -4 -7 -13 -12 -21 -12 -17 0 -95 -51 -95 -62 0 -4 9 -8 20 -8 20 0 20 0
-1 -29 -19 -26 -62 -45 -119 -55 -8 -1 -24 -7 -35 -13 -11 -6 -39 -14 -62 -18
-38 -6 -43 -5 -43 13 0 15 14 25 58 40 31 12 69 24 85 28 45 10 29 45 -35 72
-16 6 -28 15 -29 19 0 5 -2 17 -4 28 -5 23 3 55 14 55 4 0 19 -6 34 -12z
m-4167 -666 c1 -142 5 -217 13 -225 6 -6 11 -17 11 -24 0 -8 7 -16 15 -19 8
-4 22 -21 31 -40 16 -33 22 -37 82 -49 25 -5 32 -3 32 9 0 9 5 16 11 16 5 0
15 14 20 30 10 28 29 42 29 20 0 -16 -24 -64 -43 -86 -15 -17 -24 -20 -45 -14
-15 5 -40 12 -57 17 -17 5 -36 20 -45 38 -8 16 -23 36 -32 43 -10 7 -18 19
-18 26 0 8 -7 19 -15 26 -15 13 -15 94 0 131 9 25 -13 34 -35 14 -11 -10 -17
-26 -14 -43 15 -106 23 -199 19 -210 -9 -23 23 -43 72 -46 42 -2 48 -6 59 -32
14 -33 7 -127 -9 -121 -5 1 -10 30 -11 62 l-1 59 -50 9 c-74 12 -80 21 -83
127 -1 56 -7 101 -16 119 -12 22 -12 31 -3 40 9 10 8 15 -7 23 -25 14 -56 46
-56 58 0 17 22 11 47 -12 20 -19 26 -20 47 -8 14 7 28 20 32 29 13 32 13 108
-1 196 -18 112 -18 130 3 85 13 -28 16 -75 18 -248z m-511 104 c-12 -9 -12
-19 -4 -51 6 -22 14 -61 18 -87 4 -26 15 -56 24 -66 9 -10 22 -34 28 -53 6
-19 15 -44 21 -56 8 -16 8 -26 0 -36 -9 -10 -8 -18 3 -33 7 -10 11 -29 8 -41
-2 -12 2 -32 11 -45 18 -25 22 -78 6 -78 -6 0 -15 12 -21 28 -6 15 -17 40 -25
56 -8 16 -14 39 -14 51 0 11 -12 37 -26 56 -17 23 -24 42 -20 60 4 19 -2 33
-20 49 -22 22 -24 30 -24 126 0 111 13 162 37 143 11 -10 11 -13 -2 -23z
m4055 -628 c0 -10 4 -18 9 -18 5 0 23 -13 39 -30 17 -16 40 -30 51 -30 12 0
21 -4 21 -9 0 -5 10 -11 21 -13 26 -4 36 -20 44 -71 5 -32 9 -37 25 -32 11 3
28 2 37 -4 20 -12 20 -12 -28 -16 -32 -3 -37 -1 -48 30 -6 18 -11 37 -10 42 4
22 -3 33 -20 33 -11 0 -22 4 -26 10 -3 5 -12 7 -19 4 -16 -6 -116 82 -116 102
0 12 -5 12 -30 -1 -23 -12 -30 -22 -30 -46 0 -33 -23 -117 -46 -164 -7 -16
-21 -50 -29 -75 -9 -24 -21 -51 -29 -60 -16 -18 -53 -138 -61 -200 -9 -59 -41
-106 -87 -124 -31 -13 -37 -21 -43 -58 -4 -24 -11 -48 -16 -54 -16 -20 -12
-69 9 -109 12 -22 22 -45 22 -51 0 -6 18 -23 40 -38 25 -16 40 -34 40 -46 0
-11 11 -38 25 -60 14 -22 21 -40 15 -40 -13 0 -63 77 -57 87 8 12 -2 23 -45
55 -22 17 -39 40 -43 57 -9 43 -28 56 -57 38 -13 -8 -45 -18 -73 -22 -98 -13
-141 -31 -188 -80 -30 -30 -47 -58 -52 -83 -6 -36 -30 -72 -46 -72 -5 0 3 22
16 49 14 27 25 58 25 69 0 12 8 26 18 31 14 9 11 10 -16 11 -24 0 -31 3 -25
13 4 6 6 22 4 35 -1 12 2 22 8 22 5 0 11 -10 13 -22 4 -31 43 -36 72 -9 26 24
96 47 173 57 58 7 93 32 93 67 0 18 23 101 41 145 5 12 17 22 27 22 26 0 62
28 73 58 6 15 17 58 25 96 8 38 18 74 23 80 4 6 11 26 15 45 3 19 13 42 20 50
8 9 21 34 29 56 9 22 27 71 41 108 14 37 26 84 26 103 0 46 14 70 45 78 14 4
25 14 25 24 1 15 2 15 15 -2 8 -11 15 -28 15 -38z m262 -586 c-2 -7 -17 -19
-32 -27 -15 -8 -41 -31 -57 -52 -25 -33 -30 -48 -32 -108 -3 -81 -30 -166 -70
-213 -26 -33 -28 -34 -69 -23 -24 7 -57 27 -78 48 -36 36 -37 36 -86 26 -27
-5 -51 -6 -53 -2 -6 9 12 16 66 24 41 6 47 4 87 -34 24 -23 50 -41 57 -41 7 0
20 -3 29 -6 19 -7 72 65 85 115 5 20 12 72 14 116 l5 80 61 55 c47 43 61 63
62 85 l1 30 7 -30 c4 -16 5 -36 3 -43z m375 -140 c17 -67 26 -189 14 -196 -6
-4 -2 -24 11 -53 12 -28 18 -58 15 -77 -3 -22 1 -39 14 -55 21 -26 24 -52 8
-68 -11 -11 -17 -34 -18 -70 -1 -25 -60 -63 -98 -63 -15 0 -35 -7 -45 -17 -10
-9 -21 -13 -25 -9 -13 13 40 46 73 46 44 0 81 32 82 71 0 17 6 37 11 42 17 17
13 42 -9 62 -20 18 -46 116 -37 139 3 8 0 19 -6 25 -8 8 -8 14 1 23 7 7 12 26
11 43 l0 30 -17 -25 c-45 -67 -99 -113 -176 -150 -45 -22 -95 -42 -111 -44
-17 -2 -43 -9 -58 -15 -16 -6 -44 -11 -62 -11 -22 0 -43 -9 -61 -25 -15 -14
-34 -23 -42 -20 -7 3 -27 -3 -43 -12 -26 -16 -33 -16 -72 -2 -38 13 -42 17
-41 46 2 30 0 32 -40 37 -86 11 -89 14 -16 12 l75 -1 -3 -36 c-3 -35 -1 -37
32 -43 20 -4 44 -2 55 4 11 5 31 10 45 10 14 0 29 6 33 13 11 18 60 38 77 31
8 -3 17 -1 21 5 3 6 13 11 21 11 9 0 22 7 31 15 10 11 19 13 27 6 7 -6 22 -8
34 -4 20 5 21 10 17 62 l-5 56 15 -48 c15 -45 18 -48 42 -42 46 11 128 73 163
122 19 26 40 54 47 61 16 17 16 26 -1 82 -7 25 -16 59 -20 75 -13 52 16 12 31
-43z"/>
<path d="M3408 6491 c-32 -5 -53 -14 -67 -31 -26 -32 -26 -40 -1 -40 24 0 26
-25 4 -38 -22 -12 -11 -28 23 -35 18 -3 31 0 40 11 10 14 15 15 33 4 25 -15
40 -8 40 19 0 16 5 19 19 14 17 -5 21 1 29 37 14 66 -4 75 -120 59z"/>
<path d="M6350 5064 c0 -41 2 -45 20 -39 24 8 27 -10 4 -19 -9 -4 -14 -9 -11
-12 3 -3 -4 -15 -15 -26 -18 -18 -19 -21 -3 -38 13 -14 25 -17 49 -13 17 3 34
10 37 15 3 6 9 2 13 -8 6 -14 9 -16 15 -5 5 8 11 9 15 3 7 -12 48 -4 59 12 5
7 11 6 17 -6 16 -27 50 -11 50 23 0 32 -11 37 -30 14 -7 -8 -17 -12 -23 -8 -6
4 -28 6 -49 4 -21 -1 -38 2 -38 7 0 5 -11 10 -25 10 -14 0 -25 -6 -25 -14 0
-16 -37 -37 -51 -29 -7 5 -6 11 2 21 6 7 16 11 22 7 6 -4 8 0 4 10 -3 10 -2
17 3 17 16 0 22 40 8 57 -10 13 -10 17 0 20 6 3 10 9 7 13 -3 5 -12 7 -20 3
-9 -3 -15 1 -15 11 0 9 -4 16 -10 16 -5 0 -10 -21 -10 -46z"/>
<path d="M3377 4923 c-10 -10 -8 -73 2 -73 5 0 12 6 15 13 5 10 7 10 12 0 3
-7 21 -13 39 -13 18 0 36 6 38 13 3 6 6 0 6 -15 1 -28 21 -40 21 -13 0 14 22
20 62 16 12 -2 16 3 12 13 -4 11 -1 16 10 16 9 0 16 -7 16 -15 0 -8 5 -15 10
-15 6 0 10 9 10 20 0 11 5 20 10 20 6 0 10 -9 10 -19 0 -22 16 -36 24 -22 4 5
2 13 -4 16 -8 5 -7 11 1 22 18 21 -6 34 -43 21 -15 -6 -34 -8 -42 -5 -7 3 -18
1 -24 -5 -6 -6 -12 -6 -16 1 -12 18 -56 13 -57 -6 0 -16 -1 -16 -8 1 -5 14
-10 16 -15 8 -4 -7 -5 -16 -1 -21 3 -5 1 -12 -5 -16 -5 -3 -10 1 -10 9 0 35
-52 70 -73 49z"/>
<path d="M780 5920 c0 -6 11 -32 24 -58 40 -81 66 -169 60 -202 -7 -35 -19
-38 -34 -10 -11 21 -30 27 -30 9 0 -11 54 -69 64 -69 3 0 6 15 7 33 2 64 17
-13 18 -93 2 -147 -71 -321 -179 -431 -108 -109 -173 -141 -487 -238 -56 -17
-105 -37 -109 -43 -5 -8 -1 -9 12 -4 10 4 62 21 114 37 228 71 262 83 332 122
97 53 202 160 250 252 66 129 82 188 82 305 0 116 -19 193 -80 328 -31 67 -44
86 -44 62z"/>
<path d="M2437 5873 c-3 -15 -1 -32 4 -37 6 -6 9 -4 9 7 0 21 16 23 23 3 4 -9
18 -13 36 -12 20 1 31 -3 31 -11 0 -17 5 -16 36 4 23 15 26 15 42 -1 23 -23 5
-33 -56 -31 -26 2 -51 -3 -55 -9 -6 -7 -7 -5 -3 6 7 24 -13 33 -28 12 -9 -12
-15 -14 -20 -6 -14 23 -26 12 -26 -23 0 -19 1 -35 3 -35 1 0 18 4 36 10 21 6
39 6 46 0 12 -10 33 -9 53 3 6 5 12 4 12 0 0 -5 16 -10 35 -11 34 -3 35 -2 35
36 0 21 -3 42 -7 46 -4 4 -8 17 -8 29 0 23 -17 28 -99 27 -22 -1 -43 5 -48 12
-6 10 -10 10 -18 -2 -8 -12 -12 -13 -19 -2 -6 10 -10 6 -14 -15z"/>
<path d="M2838 5702 c-2 -16 -2 -34 0 -40 5 -17 22 -15 22 2 0 13 4 13 26 1
15 -7 33 -11 40 -8 8 3 14 -1 14 -10 0 -8 5 -17 12 -19 9 -3 9 -6 0 -12 -7 -4
-12 -2 -12 4 0 6 -5 8 -11 4 -6 -3 -15 -1 -19 6 -6 9 -12 9 -29 -2 -18 -11
-23 -11 -31 2 -5 8 -12 11 -16 8 -7 -8 -9 -56 -3 -63 2 -2 33 -5 68 -6 56 -2
65 0 72 17 6 16 8 16 8 2 1 -18 25 -27 54 -20 12 3 17 14 17 38 0 38 -4 41
-26 19 -17 -17 -24 -18 -42 -7 -20 14 -4 40 22 35 34 -7 52 20 37 54 -9 19
-15 23 -20 14 -11 -17 -101 -23 -101 -6 0 16 -29 13 -39 -4 -6 -10 -10 -9 -14
3 -10 25 -24 19 -29 -12z"/>
<path d="M1440 5062 c0 -23 -2 -24 -17 -11 -18 15 -101 18 -123 4 -6 -4 -16
-3 -23 2 -10 8 -45 9 -87 4 -5 0 -10 -18 -9 -38 1 -32 2 -34 8 -14 9 34 31 39
31 7 0 -13 5 -28 10 -31 6 -4 10 7 10 24 0 17 5 31 10 31 6 0 10 -11 10 -24 0
-27 15 -42 25 -26 4 6 11 8 16 4 6 -4 6 -10 -1 -19 -17 -20 16 -42 41 -27 10
7 35 12 55 12 24 0 43 7 54 19 15 18 19 19 43 6 14 -7 36 -11 47 -8 14 4 20 1
18 -7 -5 -20 54 -19 59 1 5 18 36 15 62 -5 11 -8 13 -8 7 2 -4 7 -1 12 8 12
12 0 16 10 16 40 0 33 -3 40 -19 40 -26 0 -36 -17 -14 -22 15 -3 14 -5 -4 -10
-18 -5 -23 -2 -23 12 0 25 -10 50 -21 50 -5 0 -9 -12 -9 -26 0 -23 -1 -24 -16
-10 -8 9 -19 16 -24 16 -15 0 -23 -22 -10 -30 8 -5 7 -9 -5 -14 -25 -9 -26 -8
-19 19 5 21 3 25 -15 25 -12 0 -21 -5 -21 -11 0 -5 -4 -8 -10 -4 -5 3 -7 12
-4 20 4 10 -3 13 -25 13 -26 -1 -31 -5 -31 -26z"/>
<path d="M8938 4649 c19 -21 14 -32 -13 -25 -31 8 -65 -9 -65 -31 0 -9 -12
-41 -26 -71 -24 -50 -25 -57 -10 -67 20 -15 21 -25 2 -25 -21 0 -27 -28 -20
-92 5 -48 4 -62 -11 -78 -21 -23 -15 -89 9 -102 12 -7 15 -21 11 -59 -4 -53
-23 -78 -59 -79 -18 0 -18 -1 3 -24 14 -15 19 -26 12 -31 -18 -10 -13 -20 22
-39 17 -11 42 -28 54 -38 27 -25 64 -20 80 12 13 27 40 50 57 50 6 -1 0 -11
-14 -23 -41 -35 -53 -73 -34 -102 9 -14 23 -25 31 -25 21 0 12 -44 -9 -48 -12
-2 -21 6 -28 25 -19 51 -33 73 -48 73 -8 0 -36 16 -63 36 l-49 36 -35 -38
c-19 -20 -40 -55 -46 -77 -6 -22 -20 -52 -31 -68 -30 -41 -18 -48 70 -42 88 6
100 13 85 45 -7 17 -6 31 4 53 l14 30 -5 -31 c-7 -42 3 -74 23 -74 9 0 37 -11
62 -24 28 -15 55 -23 68 -19 21 5 21 6 21 343 l0 338 -51 33 c-29 18 -47 35
-41 37 7 2 24 -5 39 -16 16 -10 34 -22 41 -26 9 -6 12 22 12 126 0 120 -2 134
-17 134 -10 1 -27 5 -38 9 -16 7 -18 6 -7 -6z"/>
<path d="M8725 3658 c-27 -4 -62 -10 -77 -12 -14 -2 -39 -13 -53 -25 -15 -11
-33 -21 -39 -21 -7 0 -32 -14 -55 -32 -50 -37 -118 -51 -174 -37 -26 7 -43 7
-51 0 -7 -6 -21 -8 -32 -5 -12 3 -26 -1 -33 -10 -8 -9 -26 -16 -41 -16 -36 0
-43 -10 -24 -31 10 -11 12 -19 5 -24 -32 -19 18 -41 114 -49 54 -5 78 -3 102
9 23 11 54 15 110 13 76 -3 78 -4 75 -27 -3 -32 18 -44 40 -24 24 21 23 40 -2
48 -24 8 -26 28 -5 45 13 11 20 9 38 -9 30 -27 46 -27 93 5 22 15 58 28 84 31
25 3 56 10 70 16 22 11 24 17 22 67 -2 45 -8 59 -29 76 -27 23 -53 25 -138 12z"/>
<path d="M8965 3613 c-54 -7 -62 -13 -41 -28 16 -12 17 -17 6 -30 -11 -14 -12
-20 -1 -37 12 -19 10 -23 -10 -39 -13 -10 -31 -19 -39 -19 -8 0 -24 -7 -34
-15 -11 -8 -30 -15 -43 -15 -29 0 -51 -37 -28 -46 9 -4 18 -4 22 -1 7 8 72
-19 95 -40 13 -11 15 -20 8 -34 -15 -26 -13 -46 2 -31 7 7 20 12 31 12 14 0
17 -5 11 -22 -6 -21 -6 -21 24 3 27 21 31 30 31 78 1 47 -1 52 -16 46 -10 -4
-26 -10 -36 -12 -29 -9 -9 24 24 37 l29 12 0 94 c0 52 -1 93 -2 93 -2 -1 -16
-4 -33 -6z"/>
<path d="M8892 1878 c-7 -7 -40 -13 -76 -13 -55 -1 -68 -5 -103 -32 -37 -30
-40 -37 -51 -109 -7 -43 -18 -85 -26 -93 -7 -9 -16 -23 -19 -33 -3 -9 -18 -19
-34 -23 -66 -15 -113 -90 -116 -182 -1 -40 4 -58 20 -75 11 -13 42 -75 68
-138 41 -100 48 -126 51 -199 2 -51 9 -92 18 -106 8 -12 22 -49 32 -81 9 -32
25 -74 35 -93 10 -19 23 -59 29 -90 18 -92 32 -143 56 -203 25 -59 34 -176 14
-163 -6 3 -10 -5 -10 -19 0 -14 -9 -48 -20 -76 -11 -27 -18 -65 -16 -83 2 -17
4 -40 5 -49 1 -16 14 -18 115 -18 105 0 114 1 119 20 8 32 -1 147 -19 245 -33
177 -24 423 21 554 12 35 15 96 15 279 0 207 -2 233 -15 222 -8 -7 -15 -18
-15 -25 0 -19 -58 -127 -80 -149 -27 -27 -38 -11 -13 17 19 19 47 71 82 147 7
14 18 36 26 50 10 16 15 53 14 105 0 77 0 79 -15 53 -16 -30 -44 -36 -67 -14
-7 8 -28 16 -45 17 -26 3 -37 -3 -66 -37 -31 -36 -34 -46 -34 -99 0 -33 0 -67
-1 -77 -1 -13 -90 -88 -106 -88 -3 0 -5 14 -5 30 0 29 29 70 50 70 6 0 10 13
10 29 0 17 6 31 16 35 12 4 14 13 10 32 -5 20 -1 30 18 45 13 11 34 35 45 53
20 32 24 34 64 29 23 -3 46 -9 52 -14 20 -19 42 -8 58 29 13 30 17 69 17 179
0 137 -1 141 -22 147 -37 9 -73 7 -86 -6z"/>
</g>
</svg>
